<svg xmlns="http://www.w3.org/2000/svg" xmlns:xlink="http://www.w3.org/1999/xlink" width="20.052" height="20.052" viewBox="0 0 20.052 20.052">
  <defs>
    <clipPath id="clip-path">
      <path id="path2538" d="M0-682.665H20.052v20.052H0Z" transform="translate(0 682.665)"/>
    </clipPath>
  </defs>
  <g id="g2532" transform="translate(0 682.665)">
    <g id="g2534" transform="translate(0 -682.665)">
      <g id="g2536" transform="translate(0 0)" clip-path="url(#clip-path)">
        <g id="g2542" transform="translate(5.588 0.587)">
          <path id="path2544" d="M-146.644-34.454l-.34-.34a2.4,2.4,0,0,0-3.4,0,2.4,2.4,0,0,0,0,3.4l3.735,3.735,3.735-3.735a2.4,2.4,0,0,0,0-3.4,2.4,2.4,0,0,0-3.4,0Z" transform="translate(151.081 35.497)" fill="none" stroke="#757575" stroke-linecap="round" stroke-linejoin="round" stroke-miterlimit="10" stroke-width="1.4"/>
        </g>
        <g id="g2546" transform="translate(10.026 2.154)">
          <path id="path2548" d="M-127.578-359.225l2.5-2.5a2.35,2.35,0,0,0,.688-1.661v-5.534a1.175,1.175,0,0,1,1.175-1.175,1.175,1.175,0,0,1,1.175,1.175v7.2a3.916,3.916,0,0,1-.908,2.507l-2.555,3.066a1.958,1.958,0,0,0-.454,1.254v2.111h-5.483v-4.279a3.917,3.917,0,0,1,1.147-2.769l3.41-3.41a1.175,1.175,0,0,1,1.661,0,1.175,1.175,0,0,1,0,1.661l-2.358,2.358" transform="translate(131.438 370.096)" fill="none" stroke="#757575" stroke-linecap="round" stroke-linejoin="round" stroke-miterlimit="10" stroke-width="1.4"/>
        </g>
        <g id="g2550" transform="translate(0.627 2.154)">
          <path id="path2552" d="M-183.022-359.225l-2.5-2.5a2.35,2.35,0,0,1-.688-1.661v-5.534a1.175,1.175,0,0,0-1.175-1.175,1.175,1.175,0,0,0-1.175,1.175v7.2a3.916,3.916,0,0,0,.908,2.507l2.555,3.066a1.958,1.958,0,0,1,.454,1.254v2.111h5.483v-4.279a3.916,3.916,0,0,0-1.147-2.769l-3.41-3.41a1.175,1.175,0,0,0-1.661,0,1.175,1.175,0,0,0,0,1.661l2.358,2.358" transform="translate(188.561 370.096)" fill="none" stroke="#757575" stroke-linecap="round" stroke-linejoin="round" stroke-miterlimit="10" stroke-width="1.4"/>
        </g>
      </g>
    </g>
  </g>
</svg>
