<svg xmlns="http://www.w3.org/2000/svg" width="25" height="25" viewBox="0 0 25 25">
  <path id="Todays_rate" d="M5,15.5A10.5,10.5,0,1,1,15.5,26,10.5,10.5,0,0,1,5,15.5ZM15.5,3A12.5,12.5,0,1,0,28,15.5,12.5,12.5,0,0,0,15.5,3ZM11.732,8.793a1.027,1.027,0,0,0,0,2.054H13.1a3.071,3.071,0,0,1,2.835,1.9q.031.075.058.152H11.732a1.027,1.027,0,0,0,0,2.054H15.99q-.027.077-.058.152a3.067,3.067,0,0,1-2.835,1.9H11.732a1.027,1.027,0,0,0-.723,1.753L15.1,22.867a1.025,1.025,0,1,0,1.447-1.452L14.1,18.961a5.13,5.13,0,0,0,4.006-4.007h1.808a1.027,1.027,0,0,0,0-2.054H18.108a5.142,5.142,0,0,0-.92-2.054h2.728a1.027,1.027,0,0,0,0-2.054Z" transform="translate(-3 -3)" fill="#fff" fill-rule="evenodd"/>
</svg>
